<svg xmlns="http://www.w3.org/2000/svg" viewBox="0 0 32 32" width="32" height="32">
  <defs>
    <!-- Gradient definitions -->
    <linearGradient id="neonGreen" x1="0%" y1="0%" x2="100%" y2="100%">
      <stop offset="0%" style="stop-color:#00ff41;stop-opacity:1" />
      <stop offset="100%" style="stop-color:#00cc33;stop-opacity:1" />
    </linearGradient>
    
    <linearGradient id="glow" x1="0%" y1="0%" x2="100%" y2="100%">
      <stop offset="0%" style="stop-color:#00ff41;stop-opacity:0.8" />
      <stop offset="100%" style="stop-color:#00ff41;stop-opacity:0.2" />
    </linearGradient>
    
    <!-- Filter for glow effect -->
    <filter id="neonGlow" x="-50%" y="-50%" width="200%" height="200%">
      <feGaussianBlur stdDeviation="2" result="coloredBlur"/>
      <feMerge> 
        <feMergeNode in="coloredBlur"/>
        <feMergeNode in="SourceGraphic"/>
      </feMerge>
    </filter>
  </defs>
  
  <!-- Background circle with subtle grid pattern -->
  <circle cx="16" cy="16" r="15" fill="none" stroke="url(#neonGreen)" stroke-width="1" opacity="0.3"/>
  
  <!-- Grid lines for cyberpunk feel -->
  <line x1="8" y1="8" x2="24" y2="8" stroke="url(#neonGreen)" stroke-width="0.5" opacity="0.4"/>
  <line x1="8" y1="16" x2="24" y2="16" stroke="url(#neonGreen)" stroke-width="0.5" opacity="0.4"/>
  <line x1="8" y1="24" x2="24" y2="24" stroke="url(#neonGreen)" stroke-width="0.5" opacity="0.4"/>
  <line x1="8" y1="8" x2="8" y2="24" stroke="url(#neonGreen)" stroke-width="0.5" opacity="0.4"/>
  <line x1="16" y1="8" x2="16" y2="24" stroke="url(#neonGreen)" stroke-width="0.5" opacity="0.4"/>
  <line x1="24" y1="8" x2="24" y2="24" stroke="url(#neonGreen)" stroke-width="0.5" opacity="0.4"/>
  
  <!-- Main "H" letter with cyberpunk styling -->
  <g filter="url(#neonGlow)">
    <!-- Left vertical bar -->
    <rect x="10" y="8" width="2" height="16" fill="url(#neonGreen)" rx="1"/>
    <!-- Right vertical bar -->
    <rect x="20" y="8" width="2" height="16" fill="url(#neonGreen)" rx="1"/>
    <!-- Horizontal bar -->
    <rect x="10" y="14" width="12" height="2" fill="url(#neonGreen)" rx="1"/>
    
    <!-- Digital circuit elements -->
    <circle cx="12" cy="10" r="0.5" fill="#00ff41"/>
    <circle cx="20" cy="10" r="0.5" fill="#00ff41"/>
    <circle cx="12" cy="22" r="0.5" fill="#00ff41"/>
    <circle cx="20" cy="22" r="0.5" fill="#00ff41"/>
  </g>
  
  <!-- Scan line effect -->
  <rect x="8" y="12" width="16" height="1" fill="url(#glow)" opacity="0.6">
    <animate attributeName="y" values="8;24;8" dur="2s" repeatCount="indefinite"/>
  </rect>
  
  <!-- Corner brackets for tech feel -->
  <path d="M 6 6 L 10 6 L 10 8 L 8 8 L 8 10 L 6 10 Z" fill="none" stroke="url(#neonGreen)" stroke-width="0.5" opacity="0.6"/>
  <path d="M 26 6 L 22 6 L 22 8 L 24 8 L 24 10 L 26 10 Z" fill="none" stroke="url(#neonGreen)" stroke-width="0.5" opacity="0.6"/>
  <path d="M 6 26 L 10 26 L 10 24 L 8 24 L 8 22 L 6 22 Z" fill="none" stroke="url(#neonGreen)" stroke-width="0.5" opacity="0.6"/>
  <path d="M 26 26 L 22 26 L 22 24 L 24 24 L 24 22 L 26 22 Z" fill="none" stroke="url(#neonGreen)" stroke-width="0.5" opacity="0.6"/>
</svg> 